<?xml version="1.0" encoding="utf-8"?>
<!-- Generator: Adobe Illustrator 16.0.0, SVG Export Plug-In . SVG Version: 6.00 Build 0)  -->
<!DOCTYPE svg PUBLIC "-//W3C//DTD SVG 1.1//EN" "http://www.w3.org/Graphics/SVG/1.1/DTD/svg11.dtd">
<svg version="1.1" id="Layer_1" xmlns="http://www.w3.org/2000/svg" xmlns:xlink="http://www.w3.org/1999/xlink" x="0px" y="0px"
	 width="260px" height="48px" viewBox="0 0 260 48" enable-background="new 0 0 260 48" xml:space="preserve">
<g>
	<path stroke="#000000" stroke-width="0.3915" stroke-miterlimit="10" d="M71.121,14.466c-1.084,0-1.983-0.338-2.674-1.039
		c-0.506-0.516-0.845-1.163-1.01-1.933c-0.811,0.612-1.815,0.917-2.997,0.917c-0.93,0-1.787-0.198-2.551-0.608
		c-0.764-0.404-1.363-0.957-1.792-1.674c-0.441-0.714-0.652-1.514-0.652-2.4c0-0.888,0.211-1.702,0.652-2.412
		c0.428-0.719,1.024-1.27,1.789-1.672c0.764-0.382,1.612-0.586,2.554-0.586c1.182,0,2.222,0.295,3.12,0.877l0.264,1.81h-0.122
		c-0.25-0.985-0.835-1.667-1.744-2.024c-0.448-0.184-0.953-0.276-1.518-0.276c-1.15,0-2.11,0.404-2.885,1.205
		C60.79,5.465,60.41,6.484,60.41,7.718c0,1.236,0.38,2.274,1.145,3.079c0.782,0.817,1.735,1.228,2.885,1.228
		c0.565,0,1.09-0.091,1.6-0.29c0.497-0.2,0.926-0.479,1.295-0.822V8.646c0-0.194-0.062-0.337-0.173-0.438
		c-0.105-0.097-0.266-0.144-0.475-0.144h-0.209V7.932h2.53v0.131h-0.194c-0.225,0-0.383,0.046-0.49,0.144
		c-0.113,0.101-0.166,0.245-0.164,0.438v1.973c0.061,1.345,0.5,2.324,1.335,2.898c0.578,0.417,1.325,0.623,2.26,0.623
		c0.381,0,0.798-0.045,1.256-0.122l0.011,0.139C72.339,14.361,71.706,14.466,71.121,14.466z"/>
	<path stroke="#000000" stroke-width="0.3915" stroke-miterlimit="10" d="M78.742,12.106h0.103v0.125h-2.893v-0.125h0.116
		c0.177,0,0.314-0.058,0.401-0.167c0.091-0.114,0.132-0.23,0.132-0.329c0-0.108-0.013-0.206-0.044-0.304l-0.825-2.191h-3.47
		L71.4,11.312c-0.031,0.101-0.041,0.199-0.041,0.303c0,0.098,0.041,0.21,0.13,0.324c0.089,0.109,0.22,0.167,0.399,0.167h0.12v0.125
		h-2.591v-0.125h0.119c0.226,0,0.429-0.063,0.638-0.208c0.208-0.134,0.369-0.335,0.497-0.593l2.899-6.912
		c0.326-0.698,0.479-1.146,0.479-1.334h0.107l3.448,8.246c0.122,0.257,0.281,0.458,0.49,0.593
		C78.301,12.042,78.523,12.106,78.742,12.106z M72.414,8.736h3.168l-1.547-4.127L72.414,8.736z"/>
	<path stroke="#000000" stroke-width="0.3915" stroke-miterlimit="10" d="M82.596,12.231h-3.133l0.008-0.125h0.156
		c0.219,0,0.417-0.082,0.573-0.229c0.152-0.163,0.242-0.346,0.247-0.565V4.165c-0.004-0.222-0.094-0.412-0.247-0.56
		c-0.156-0.16-0.354-0.24-0.573-0.24h-0.156l-0.008-0.127h2.551c0.879,0,1.577,0.198,2.061,0.586
		c0.489,0.389,0.723,0.913,0.723,1.564c0,0.51-0.13,0.937-0.407,1.275c-0.271,0.338-0.611,0.56-1.001,0.678
		c0.671,0.11,1.213,0.386,1.602,0.825c0.398,0.458,0.593,1.037,0.593,1.722c0,0.689-0.264,1.249-0.786,1.695
		C84.269,12.013,83.535,12.231,82.596,12.231z M81.28,11.764h1.254c0.02,0,0.023,0,0.03,0c0.653,0,1.156-0.179,1.521-0.538
		c0.362-0.344,0.531-0.84,0.531-1.495c0-0.367-0.053-0.687-0.184-0.964c-0.125-0.29-0.281-0.509-0.461-0.669
		c-0.5-0.416-1.243-0.614-2.241-0.614h-0.004V7.367c1.125,0,1.804-0.424,2.034-1.26c0.05-0.183,0.081-0.396,0.081-0.626
		c0-0.589-0.165-1.034-0.483-1.355c-0.317-0.311-0.793-0.479-1.394-0.479H81.28V11.764z"/>
	<path stroke="#000000" stroke-width="0.3915" stroke-miterlimit="10" d="M87.03,12.106c0.217,0,0.415-0.082,0.568-0.242
		c0.158-0.152,0.248-0.339,0.248-0.559v-7.14c0-0.222-0.09-0.412-0.248-0.56c-0.153-0.16-0.351-0.24-0.568-0.24h-0.18V3.238h2.828
		v0.127h-0.173c-0.224,0-0.407,0.08-0.567,0.24c-0.164,0.147-0.253,0.338-0.256,0.56v7.14c0,0.22,0.082,0.407,0.244,0.559
		c0.157,0.16,0.355,0.242,0.579,0.242h0.173v0.125H86.85v-0.125H87.03z"/>
	<path stroke="#000000" stroke-width="0.3915" stroke-miterlimit="10" d="M100.426,3.366c-0.218,0-0.397,0.08-0.556,0.224
		c-0.15,0.152-0.24,0.346-0.24,0.544v6.633c0,0.498,0.031,0.972,0.09,1.425l0.027,0.22H99.63l-7.003-7.477v6.402
		c0,0.219,0.079,0.398,0.231,0.541c0.158,0.153,0.336,0.229,0.556,0.229h0.24v0.125h-2.65v-0.125h0.247
		c0.211,0,0.4-0.076,0.55-0.229c0.156-0.142,0.239-0.329,0.239-0.559V4.65c0-0.517-0.029-0.985-0.09-1.403L91.92,3.05h0.127
		l7.001,7.476V4.152c-0.005-0.217-0.092-0.41-0.247-0.563c-0.151-0.144-0.337-0.224-0.548-0.224h-0.247V3.238h2.644v0.127H100.426z"
		/>
	<path stroke="#000000" stroke-width="0.3915" stroke-miterlimit="10" d="M102.042,12.106c0.218,0,0.413-0.082,0.578-0.242
		c0.157-0.152,0.233-0.339,0.248-0.559V4.104c0-0.2-0.088-0.38-0.248-0.524c-0.165-0.134-0.359-0.214-0.578-0.214h-0.151
		l-0.01-0.127h3.766c0.253,0,0.555-0.021,0.856-0.077c0.314-0.045,0.533-0.102,0.675-0.144v1.606h-0.142V4.4
		c0-0.205-0.065-0.382-0.219-0.525c-0.13-0.151-0.288-0.229-0.497-0.237h-2.625V7.61h2.178c0.178-0.005,0.325-0.076,0.447-0.189
		c0.117-0.121,0.178-0.27,0.178-0.452V6.786h0.116v2.033h-0.116V8.625c0-0.174-0.061-0.317-0.178-0.438
		c-0.118-0.118-0.27-0.18-0.439-0.193h-2.186v3.84h1.85c0.626,0,1.106-0.131,1.452-0.421c0.32-0.286,0.603-0.703,0.828-1.263h0.118
		l-0.737,2.082h-5.325v-0.125H102.042z"/>
	<path stroke="#000000" stroke-width="0.3915" stroke-miterlimit="10" d="M116.093,4.394c0-0.21-0.091-0.391-0.23-0.538
		c-0.142-0.154-0.31-0.236-0.501-0.241h-2.456v7.697c0.016,0.22,0.086,0.403,0.267,0.565c0.148,0.147,0.341,0.229,0.557,0.229h0.182
		v0.125h-2.824v-0.125h0.166c0.232,0,0.415-0.082,0.57-0.229c0.166-0.163,0.25-0.342,0.255-0.559V3.614h-2.451
		c-0.207,0.005-0.371,0.087-0.498,0.241c-0.149,0.147-0.229,0.328-0.229,0.538v0.216l-0.13,0.005V2.998
		c0.13,0.052,0.358,0.109,0.678,0.148c0.305,0.06,0.599,0.086,0.856,0.086h4.344c0.427,0,0.773-0.031,1.073-0.103
		c0.262-0.061,0.442-0.101,0.498-0.132v1.616l-0.126-0.005V4.394z"/>
	<path stroke="#000000" stroke-width="0.3915" stroke-miterlimit="10" d="M118.927,5.802c-0.256-0.322-0.409-0.633-0.409-0.949
		c0-0.316,0.093-0.581,0.227-0.805c0.141-0.23,0.373-0.429,0.708-0.572c0.316-0.167,0.688-0.243,1.106-0.243h5.261
		c0.262,0,0.562-0.026,0.886-0.086c0.331-0.039,0.532-0.096,0.678-0.148v1.616l-0.146-0.005V4.394c0-0.21-0.063-0.391-0.201-0.538
		c-0.161-0.154-0.331-0.236-0.516-0.241h-2.445v7.697c0,0.305,0.151,0.542,0.409,0.688c0.123,0.071,0.268,0.106,0.421,0.106h0.154
		v0.125h-2.816v-0.125h0.178c0.222,0,0.411-0.082,0.558-0.229c0.177-0.163,0.245-0.342,0.271-0.559V3.614h-2.69
		c-0.68,0-1.186,0.215-1.504,0.658c-0.146,0.22-0.245,0.459-0.245,0.693c0,0.254,0.075,0.501,0.22,0.772L118.927,5.802z"/>
	<path stroke="#000000" stroke-width="0.3915" stroke-miterlimit="10" d="M128.539,12.106c0.233,0,0.411-0.082,0.589-0.242
		c0.146-0.152,0.241-0.339,0.241-0.559V4.104c0-0.2-0.091-0.38-0.24-0.524c-0.179-0.134-0.356-0.214-0.59-0.214h-0.146l-0.004-0.127
		h3.747c0.268,0,0.567-0.021,0.869-0.077c0.315-0.045,0.531-0.102,0.674-0.144v1.606h-0.143V4.4c0-0.205-0.064-0.382-0.216-0.525
		c-0.131-0.151-0.288-0.229-0.498-0.237h-2.625V7.61h2.177c0.178-0.005,0.323-0.076,0.446-0.189c0.122-0.121,0.171-0.27,0.171-0.452
		V6.786h0.122v2.033h-0.122V8.625c0-0.174-0.049-0.317-0.17-0.438c-0.119-0.118-0.27-0.18-0.447-0.193h-2.177v3.84h1.85
		c0.627,0,1.106-0.131,1.451-0.421c0.331-0.286,0.595-0.703,0.829-1.263h0.121l-0.738,2.082h-5.322v-0.125H128.539z"/>
	<path stroke="#000000" stroke-width="0.3915" stroke-miterlimit="10" d="M138.313,3.638h-0.817v7.667
		c0,0.22,0.078,0.407,0.228,0.559c0.151,0.16,0.358,0.242,0.59,0.242h0.158l0.005,0.125h-2.814v-0.125h0.177
		c0.205,0,0.407-0.082,0.563-0.229c0.161-0.163,0.239-0.346,0.255-0.565V4.183c-0.016-0.218-0.094-0.416-0.255-0.578
		c-0.155-0.155-0.357-0.24-0.563-0.24h-0.177V3.238h3.47c0.784,0,1.401,0.218,1.851,0.646c0.44,0.438,0.648,1.004,0.648,1.683
		c0,0.697-0.208,1.285-0.627,1.794c-0.433,0.496-0.938,0.748-1.549,0.748c0.133,0.057,0.277,0.177,0.461,0.357
		c0.171,0.179,0.328,0.352,0.471,0.546c0.734,1.047,1.213,1.697,1.427,1.947c0.227,0.236,0.376,0.408,0.477,0.5
		c0.105,0.091,0.197,0.172,0.305,0.254c0.122,0.089,0.233,0.163,0.328,0.209c0.272,0.121,0.54,0.183,0.809,0.183v0.125h-0.72
		c-0.354,0-0.705-0.063-1.014-0.189c-0.309-0.14-0.548-0.276-0.715-0.415c-0.162-0.147-0.294-0.283-0.412-0.412
		c-0.117-0.139-0.427-0.577-0.955-1.331c-0.523-0.75-0.828-1.179-0.917-1.292c-0.091-0.11-0.179-0.216-0.268-0.313
		c-0.26-0.292-0.545-0.429-0.828-0.429V7.709c0.089,0.019,0.178,0.02,0.278,0.02c0.11,0,0.25-0.001,0.398-0.02
		c1.067-0.027,1.747-0.468,2.013-1.328c0.059-0.177,0.091-0.334,0.091-0.486c0-0.149,0-0.248,0-0.293
		c-0.032-0.566-0.179-1.04-0.457-1.386c-0.282-0.341-0.671-0.541-1.139-0.571C138.878,3.646,138.614,3.638,138.313,3.638z"/>
	<path stroke="#000000" stroke-width="0.3915" stroke-miterlimit="10" d="M152.417,12.106h0.082v0.125h-2.888v-0.125h0.117
		c0.179,0,0.318-0.058,0.407-0.167c0.093-0.114,0.139-0.23,0.139-0.329c0-0.108-0.02-0.206-0.046-0.304l-0.831-2.191h-3.459
		l-0.875,2.197c-0.038,0.101-0.038,0.199-0.038,0.303c0,0.098,0.029,0.21,0.121,0.324c0.078,0.109,0.239,0.167,0.406,0.167h0.119
		v0.125h-2.588v-0.125h0.112c0.232,0,0.433-0.063,0.646-0.208c0.21-0.134,0.356-0.335,0.506-0.593l2.89-6.912
		c0.325-0.698,0.479-1.146,0.479-1.334h0.118l3.437,8.246c0.123,0.257,0.29,0.458,0.49,0.593
		C151.968,12.042,152.178,12.106,152.417,12.106z M146.081,8.736h3.17l-1.54-4.127L146.081,8.736z"/>
	<path stroke="#000000" stroke-width="0.3915" stroke-miterlimit="10" d="M159.122,5.718c0,0.389-0.079,0.731-0.24,1.062
		c-0.266,0.611-0.766,1.024-1.473,1.269c-0.262,0.081-0.478,0.118-0.646,0.118c-0.54,0-0.979-0.087-1.373-0.287V7.759
		c0.622,0.129,1.19,0.06,1.718-0.208c0.474-0.245,0.796-0.638,0.976-1.184c0.061-0.178,0.071-0.34,0.071-0.49
		c0-0.159,0-0.249,0-0.284c-0.011-0.603-0.168-1.072-0.474-1.432c-0.301-0.358-0.719-0.531-1.249-0.531h-1.482v7.675
		c0,0.22,0.097,0.407,0.239,0.559c0.173,0.16,0.357,0.242,0.596,0.242h0.139v0.125h-2.808v-0.125h0.178
		c0.211,0,0.417-0.082,0.569-0.242c0.153-0.152,0.232-0.339,0.249-0.559V4.12c-0.017-0.216-0.106-0.396-0.279-0.541
		c-0.15-0.134-0.328-0.214-0.539-0.214h-0.16l-0.018-0.127h3.359c0.813,0,1.461,0.219,1.94,0.666
		C158.882,4.34,159.122,4.949,159.122,5.718z"/>
	<path stroke="#000000" stroke-width="0.3915" stroke-miterlimit="10" d="M160.634,12.106c0.233,0,0.416-0.082,0.59-0.242
		c0.14-0.152,0.229-0.339,0.229-0.559v-7.14c0-0.222-0.09-0.412-0.229-0.56c-0.174-0.16-0.356-0.24-0.59-0.24h-0.156V3.238h2.81
		v0.127h-0.18c-0.211,0-0.41,0.08-0.558,0.24c-0.154,0.147-0.24,0.338-0.26,0.56v7.14c0,0.22,0.078,0.407,0.26,0.559
		c0.147,0.16,0.347,0.242,0.558,0.242h0.18v0.125h-2.81v-0.125H160.634z"/>
	<path stroke="#000000" stroke-width="0.3915" stroke-miterlimit="10" d="M164.972,12.106c0.238,0,0.417-0.082,0.595-0.242
		c0.145-0.152,0.229-0.339,0.229-0.559v-7.14c0-0.222-0.085-0.412-0.229-0.56c-0.178-0.16-0.356-0.24-0.595-0.24h-0.15V3.238h2.81
		v0.127h-0.18c-0.211,0-0.411,0.08-0.559,0.24c-0.157,0.147-0.24,0.338-0.265,0.56v7.14c0,0.22,0.085,0.407,0.265,0.559
		c0.147,0.16,0.348,0.242,0.559,0.242h0.18v0.125h-2.81v-0.125H164.972z"/>
	<path stroke="#000000" stroke-width="0.3915" stroke-miterlimit="10" d="M63.2,18.448c0.737,0,1.354,0.178,1.864,0.545
		c0.661,0.481,1.004,1.229,1.004,2.253c0,0.733-0.207,1.355-0.627,1.886c-0.437,0.549-1.055,0.831-1.858,0.831
		c-0.421,0-0.806-0.098-1.147-0.295c-0.342-0.209-0.545-0.544-0.606-1.033l0.117-0.043c0.097,0.37,0.312,0.617,0.665,0.774
		c0.222,0.093,0.428,0.15,0.612,0.15c0.703,0,1.206-0.273,1.532-0.822c0.225-0.401,0.34-0.892,0.34-1.441
		c0-0.898-0.247-1.53-0.741-1.925c-0.384-0.308-0.856-0.463-1.437-0.463c-0.145,0-0.265,0-0.356,0.011
		c-0.098,0.024-0.526,0.095-1.296,0.217v7.624c0.011,0.232,0.1,0.412,0.258,0.572c0.17,0.158,0.354,0.224,0.57,0.224h0.161v0.143
		h-2.811v-0.143h0.17c0.214,0,0.397-0.065,0.559-0.224c0.158-0.16,0.247-0.34,0.267-0.572v-6.949c0-0.225-0.079-0.402-0.201-0.529
		c-0.127-0.123-0.288-0.185-0.495-0.185c-0.044,0-0.089,0-0.129,0.017l-0.15,0.018l-0.031-0.127c0.439-0.05,1.042-0.135,1.784-0.258
		c0.757-0.122,1.218-0.199,1.401-0.22C62.802,18.472,62.992,18.448,63.2,18.448z"/>
	<path stroke="#000000" stroke-width="0.3915" stroke-miterlimit="10" d="M68.65,19.768c0.916-0.856,2.109-1.284,3.572-1.284
		c1.454,0,2.653,0.428,3.564,1.284c0.917,0.856,1.376,1.993,1.376,3.382c0,1.408-0.459,2.528-1.376,3.385
		c-0.911,0.856-2.11,1.306-3.564,1.306c-1.462,0-2.656-0.449-3.572-1.306c-0.918-0.856-1.377-1.977-1.377-3.385
		C67.273,21.761,67.732,20.624,68.65,19.768z M69.354,26.269c0.728,0.775,1.677,1.179,2.861,1.179c1.176,0,2.134-0.403,2.858-1.179
		c0.726-0.792,1.088-1.826,1.088-3.119c0-1.284-0.362-2.321-1.088-3.1c-0.724-0.782-1.682-1.185-2.858-1.185
		c-1.184,0-2.133,0.402-2.861,1.185c-0.714,0.778-1.084,1.815-1.084,3.1C68.27,24.442,68.639,25.477,69.354,26.269z"/>
	<path stroke="#000000" stroke-width="0.3915" stroke-miterlimit="10" d="M78.552,19.795v0.237h-0.136v-1.618
		c0.136,0.058,0.354,0.095,0.682,0.157c0.319,0.045,0.548,0.07,0.678,0.07c0.12,0,0.189,0,0.189,0h3.596
		c0.41,0,0.737-0.021,0.957-0.07c0.218-0.038,0.358-0.072,0.399-0.088v0.112l-5.5,8.673h4.085c0.456,0,0.83-0.144,1.123-0.439
		c0.294-0.295,0.508-0.676,0.642-1.152h0.123l-0.419,1.979h-6.729v-0.111l5.391-8.516h-4.33c-0.213,0.015-0.397,0.087-0.536,0.242
		C78.62,19.413,78.552,19.595,78.552,19.795z"/>
	<path stroke="#000000" stroke-width="0.3915" stroke-miterlimit="10" d="M95.825,18.788c-0.21,0-0.398,0.077-0.548,0.232
		c-0.156,0.146-0.239,0.317-0.247,0.539v6.628c0,0.504,0.03,0.978,0.091,1.418l0.016,0.234H95.03l-7.001-7.485v6.395
		c0,0.202,0.083,0.396,0.225,0.56c0.164,0.143,0.34,0.204,0.562,0.204h0.236v0.143h-2.64v-0.143h0.241
		c0.216,0,0.398-0.062,0.556-0.204c0.148-0.163,0.23-0.359,0.23-0.56v-6.677c0-0.529-0.031-0.984-0.092-1.396l-0.021-0.204h0.123
		l7.001,7.483v-6.38c0-0.223-0.09-0.409-0.238-0.555c-0.161-0.155-0.34-0.232-0.558-0.232h-0.24v-0.127h2.639v0.127H95.825z"/>
	<path stroke="#000000" stroke-width="0.3915" stroke-miterlimit="10" d="M105.644,27.513h0.098v0.143h-2.89v-0.143h0.115
		c0.18,0,0.313-0.062,0.406-0.174c0.083-0.11,0.131-0.21,0.131-0.331c0-0.082-0.02-0.196-0.048-0.291l-0.829-2.185h-3.465
		l-0.857,2.185c-0.031,0.112-0.051,0.209-0.051,0.307c0,0.105,0.051,0.205,0.14,0.315c0.085,0.112,0.22,0.174,0.397,0.174h0.116
		v0.143h-2.585v-0.143h0.12c0.216,0,0.429-0.062,0.63-0.203c0.204-0.122,0.377-0.323,0.501-0.593l2.903-6.922
		c0.314-0.689,0.47-1.129,0.47-1.312h0.12l3.445,8.233c0.116,0.27,0.28,0.471,0.49,0.593
		C105.2,27.451,105.414,27.513,105.644,27.513z M99.321,24.146h3.164l-1.548-4.123L99.321,24.146z"/>
	<path stroke="#000000" stroke-width="0.3915" stroke-miterlimit="10" d="M114.648,18.661h2.524v0.127h-0.1
		c-0.226,0-0.436,0.061-0.652,0.2c-0.237,0.127-0.378,0.337-0.473,0.595l-2.136,6.799c-0.17,0.544-0.266,1.009-0.278,1.426h-0.122
		l-2.623-7.349l-1.958,5.923c-0.149,0.533-0.239,1.009-0.269,1.426h-0.12l-2.897-8.232c-0.106-0.271-0.266-0.46-0.48-0.587
		c-0.214-0.14-0.438-0.2-0.662-0.2h-0.1v-0.127h2.849v0.127h-0.115c-0.183,0-0.306,0.056-0.399,0.173
		c-0.076,0.109-0.139,0.222-0.139,0.327c0,0.104,0.024,0.194,0.041,0.287l1.959,6.259l2.385-7.386l0.106,0.023l2.545,7.098
		l1.711-6.01c0.021-0.1,0.055-0.194,0.055-0.289c0-0.1-0.055-0.21-0.152-0.31c-0.078-0.12-0.199-0.173-0.38-0.173h-0.119V18.661z"/>
	<path stroke="#000000" stroke-width="0.3915" stroke-miterlimit="10" d="M118.75,26.534c-0.852-0.856-1.257-1.979-1.257-3.385
		c0-1.404,0.405-2.525,1.257-3.382c0.863-0.856,1.989-1.284,3.404-1.284c1.151,0,2.15,0.28,3.048,0.872l0.25,1.811h-0.112
		c-0.194-0.731-0.588-1.312-1.144-1.711c-0.58-0.401-1.258-0.59-2.042-0.59c-1.116,0-2.026,0.386-2.692,1.167
		c-0.669,0.784-1.016,1.815-1.016,3.1c0,1.283,0.347,2.318,0.987,3.096c0.686,0.78,1.547,1.203,2.632,1.22
		c0.969,0,1.77-0.259,2.407-0.791c0.689-0.564,1.106-1.479,1.258-2.753h0.099l-0.158,2.016c-0.766,1.27-1.982,1.921-3.605,1.921
		C120.711,27.814,119.614,27.391,118.75,26.534z"/>
	<path stroke="#000000" stroke-width="0.3915" stroke-miterlimit="10" d="M127.563,19.795v0.237h-0.143v-1.618
		c0.143,0.058,0.362,0.095,0.692,0.157c0.331,0.045,0.537,0.07,0.659,0.07c0.135,0,0.206,0,0.206,0h3.58
		c0.43,0,0.753-0.021,0.974-0.07c0.229-0.038,0.361-0.072,0.396-0.088v0.112l-5.502,8.673h4.098c0.453,0,0.832-0.144,1.126-0.439
		c0.3-0.295,0.5-0.676,0.622-1.152h0.141l-0.44,1.979h-6.733v-0.111l5.407-8.516h-4.328c-0.223,0.015-0.407,0.087-0.541,0.242
		C127.623,19.413,127.563,19.595,127.563,19.795z"/>
	<path stroke="#000000" stroke-width="0.3915" stroke-miterlimit="10" d="M136.541,19.768c0.916-0.856,2.102-1.284,3.558-1.284
		c1.47,0,2.657,0.428,3.574,1.284c0.915,0.856,1.369,1.993,1.369,3.382c0,1.408-0.454,2.528-1.369,3.385
		c-0.917,0.856-2.104,1.306-3.574,1.306c-1.456,0-2.642-0.449-3.558-1.306c-0.919-0.856-1.385-1.977-1.385-3.385
		C135.156,21.761,135.622,20.624,136.541,19.768z M137.23,26.269c0.732,0.775,1.678,1.179,2.856,1.179
		c1.186,0,2.136-0.403,2.87-1.179c0.717-0.792,1.091-1.826,1.091-3.119c0-1.284-0.374-2.321-1.091-3.1
		c-0.734-0.782-1.685-1.185-2.87-1.185c-1.179,0-2.124,0.402-2.856,1.185c-0.708,0.778-1.069,1.815-1.069,3.1
		C136.161,24.442,136.522,25.477,137.23,26.269z"/>
	<path stroke="#000000" stroke-width="0.3915" stroke-miterlimit="10" d="M145.972,23.903l0.09-0.282h3.846l0.083,0.282
		l-0.083,0.295h-3.846L145.972,23.903z"/>
	<path stroke="#000000" stroke-width="0.3915" stroke-miterlimit="10" d="M155.515,22.048c-0.146,0.165-0.325,0.287-0.526,0.364
		c0.833,0.12,1.474,0.412,1.914,0.892c0.446,0.465,0.657,1.052,0.657,1.733c0,0.838-0.332,1.497-1.008,2.027
		c-0.67,0.509-1.545,0.775-2.63,0.775c-1.098,0-1.954-0.276-2.563-0.816c-0.611-0.53-0.924-1.286-0.924-2.262
		c0-0.049,0-0.102,0-0.151l0.149-0.025c0.168,1.273,0.707,2.106,1.593,2.479v-7.481c-0.029-0.228-0.117-0.417-0.269-0.563
		c-0.156-0.155-0.349-0.232-0.573-0.232h-0.165v-0.127h2.168c0.812,0,1.446,0.18,1.936,0.547c0.472,0.37,0.717,0.856,0.717,1.441
		C155.991,21.251,155.845,21.718,155.515,22.048z M153.006,19.07v8.219c0.288,0.05,0.616,0.072,0.967,0.072
		c0.835,0,1.481-0.232,1.935-0.67c0.464-0.443,0.679-1.014,0.679-1.715c0-0.377-0.062-0.719-0.215-0.994
		c-0.141-0.302-0.32-0.523-0.526-0.679c-0.57-0.452-1.364-0.662-2.399-0.662l0,0l-0.024-0.112h0.024
		c0.445,0,0.806-0.143,1.122-0.438c0.317-0.289,0.479-0.724,0.479-1.328c0-1.126-0.629-1.693-1.87-1.693H153.006z"/>
	<path stroke="#000000" stroke-width="0.3915" stroke-miterlimit="10" d="M158.855,27.513c0.236,0,0.417-0.072,0.595-0.227
		c0.145-0.157,0.229-0.353,0.229-0.569v-7.199c0-0.213-0.08-0.372-0.229-0.52c-0.173-0.138-0.358-0.21-0.595-0.21h-0.15v-0.127
		h3.752c0.263,0,0.563-0.035,0.869-0.07c0.31-0.058,0.539-0.107,0.667-0.17v1.629h-0.128v-0.232c0-0.213-0.072-0.39-0.229-0.529
		c-0.127-0.138-0.292-0.228-0.499-0.234h-2.62v3.973h2.181c0.183-0.007,0.316-0.067,0.439-0.189c0.121-0.123,0.177-0.28,0.177-0.45
		v-0.179h0.121v2.035h-0.121v-0.2c0-0.167-0.056-0.308-0.177-0.43c-0.117-0.125-0.257-0.2-0.436-0.2h-2.185v3.834h1.849
		c0.62,0,1.106-0.141,1.45-0.418c0.328-0.295,0.604-0.699,0.834-1.26h0.123l-0.75,2.086h-5.317v-0.143H158.855z"/>
	<path stroke="#000000" stroke-width="0.3915" stroke-miterlimit="10" d="M174.573,27.513h0.146v0.143h-2.787v-0.143h0.157
		c0.217,0,0.41-0.062,0.561-0.204c0.156-0.163,0.245-0.359,0.267-0.56v-3.353h-4.958v3.353c0,1.214-0.302,2.008-0.896,2.425
		c-0.262,0.173-0.595,0.321-1.022,0.407l-0.066-0.122c0.394-0.194,0.679-0.5,0.856-0.937c0.185-0.419,0.282-1.01,0.282-1.773v-7.166
		c0-0.226-0.072-0.407-0.25-0.563c-0.149-0.155-0.356-0.232-0.558-0.232h-0.171v-0.127h2.801v0.127h-0.166
		c-0.222,0-0.41,0.077-0.572,0.232c-0.155,0.155-0.237,0.337-0.237,0.563v3.437h4.958v-3.202c0-1.097,0.252-1.866,0.739-2.298
		c0.297-0.247,0.679-0.435,1.185-0.545l0.063,0.118c-0.391,0.204-0.69,0.521-0.868,0.951c-0.194,0.428-0.288,1.01-0.288,1.773v6.899
		c0,0.217,0.089,0.412,0.237,0.569C174.157,27.44,174.335,27.513,174.573,27.513z"/>
	<path stroke="#000000" stroke-width="0.3915" stroke-miterlimit="10" d="M184.85,27.513h0.107v0.143h-2.886v-0.143h0.109
		c0.187,0,0.313-0.062,0.401-0.174c0.09-0.11,0.15-0.21,0.15-0.331c0-0.082-0.029-0.196-0.061-0.291l-0.825-2.185h-3.457
		l-0.856,2.185c-0.05,0.112-0.063,0.209-0.063,0.307c0,0.105,0.038,0.205,0.131,0.315c0.092,0.112,0.22,0.174,0.397,0.174h0.117
		v0.143h-2.567v-0.143h0.115c0.205,0,0.411-0.062,0.623-0.203c0.208-0.122,0.368-0.323,0.5-0.593l2.896-6.922
		c0.328-0.689,0.468-1.129,0.468-1.312h0.123l3.464,8.233c0.121,0.27,0.257,0.471,0.468,0.593
		C184.416,27.451,184.629,27.513,184.85,27.513z M178.537,24.146h3.156l-1.542-4.123L178.537,24.146z"/>
	<path stroke="#000000" stroke-width="0.3915" stroke-miterlimit="10" d="M193.869,18.661h2.515v0.127h-0.096
		c-0.239,0-0.438,0.061-0.667,0.2c-0.216,0.127-0.367,0.337-0.461,0.595l-2.141,6.799c-0.157,0.544-0.273,1.009-0.278,1.426h-0.117
		l-2.63-7.349l-1.953,5.923c-0.139,0.533-0.233,1.009-0.26,1.426h-0.118l-2.912-8.232c-0.096-0.271-0.256-0.46-0.483-0.587
		c-0.212-0.14-0.408-0.2-0.651-0.2h-0.088v-0.127h2.84v0.127h-0.122c-0.178,0-0.296,0.056-0.389,0.173
		c-0.09,0.109-0.146,0.222-0.146,0.327c0,0.104,0.021,0.194,0.04,0.287l1.946,6.259l2.386-7.386l0.122,0.023l2.536,7.098l1.719-6.01
		c0.026-0.1,0.045-0.194,0.045-0.289c0-0.1-0.045-0.21-0.128-0.31c-0.102-0.12-0.219-0.173-0.391-0.173h-0.117V18.661z"/>
	<path stroke="#000000" stroke-width="0.3915" stroke-miterlimit="10" d="M197.179,27.513c0.235,0,0.417-0.072,0.583-0.227
		c0.15-0.157,0.239-0.353,0.239-0.569v-7.134c0-0.226-0.089-0.407-0.239-0.563c-0.166-0.155-0.348-0.232-0.583-0.232h-0.151v-0.127
		h2.81v0.127h-0.18c-0.198,0-0.409,0.077-0.56,0.232c-0.168,0.155-0.24,0.337-0.251,0.563v7.134c0,0.217,0.071,0.412,0.251,0.569
		c0.15,0.154,0.361,0.227,0.56,0.227h0.18v0.143h-2.81v-0.143H197.179z"/>
	<path stroke="#000000" stroke-width="0.3915" stroke-miterlimit="10" d="M202.227,19.768c0.917-0.856,2.103-1.284,3.554-1.284
		c1.467,0,2.651,0.428,3.57,1.284c0.917,0.856,1.378,1.993,1.378,3.382c0,1.408-0.461,2.528-1.378,3.385
		c-0.919,0.856-2.104,1.306-3.57,1.306c-1.451,0-2.637-0.449-3.554-1.306c-0.916-0.856-1.385-1.977-1.385-3.385
		C200.842,21.761,201.311,20.624,202.227,19.768z M202.923,26.269c0.73,0.775,1.674,1.179,2.853,1.179
		c1.184,0,2.136-0.403,2.866-1.179c0.726-0.792,1.097-1.826,1.097-3.119c0-1.284-0.371-2.321-1.097-3.1
		c-0.73-0.782-1.683-1.185-2.866-1.185c-1.179,0-2.122,0.402-2.853,1.185c-0.716,0.778-1.073,1.815-1.073,3.1
		C201.85,24.442,202.207,25.477,202.923,26.269z"/>
	<path stroke="#000000" stroke-width="0.3915" stroke-miterlimit="10" d="M214.39,19.054h-0.807v7.663
		c0,0.217,0.063,0.412,0.228,0.569c0.149,0.154,0.35,0.227,0.579,0.227h0.159v0.143h-2.798v-0.143h0.162
		c0.215,0,0.406-0.065,0.573-0.224c0.14-0.16,0.24-0.34,0.245-0.572v-7.122c-0.005-0.229-0.105-0.419-0.245-0.566
		c-0.167-0.163-0.358-0.24-0.573-0.24h-0.162v-0.127h3.443c0.801,0,1.4,0.21,1.853,0.644c0.455,0.428,0.659,1.002,0.659,1.696
		c0,0.677-0.197,1.284-0.621,1.778c-0.433,0.495-0.929,0.744-1.558,0.744c0.141,0.058,0.297,0.18,0.463,0.357
		c0.178,0.18,0.333,0.362,0.473,0.545c0.733,1.051,1.224,1.704,1.423,1.943c0.24,0.251,0.385,0.406,0.478,0.502
		c0.101,0.078,0.2,0.173,0.317,0.258c0.112,0.097,0.211,0.16,0.333,0.21c0.245,0.112,0.513,0.174,0.797,0.174v0.143h-0.709
		c-0.359,0-0.708-0.082-1.038-0.204c-0.3-0.142-0.545-0.263-0.704-0.407c-0.152-0.155-0.29-0.285-0.407-0.415
		c-0.122-0.125-0.428-0.567-0.957-1.33c-0.528-0.751-0.816-1.179-0.919-1.291c-0.078-0.104-0.17-0.204-0.26-0.307
		c-0.273-0.305-0.557-0.447-0.826-0.447v-0.122c0.06,0.01,0.154,0.01,0.27,0.01c0.121,0,0.252,0,0.411-0.01
		c1.063-0.025,1.74-0.473,2.008-1.336c0.051-0.176,0.084-0.327,0.084-0.482c0-0.15,0-0.245,0-0.288
		c-0.021-0.574-0.173-1.038-0.468-1.388c-0.26-0.36-0.65-0.545-1.121-0.567C214.954,19.054,214.699,19.054,214.39,19.054z"/>
	<path stroke="#000000" stroke-width="0.3915" stroke-miterlimit="10" d="M228.473,27.513h0.112v0.143h-2.887v-0.143h0.117
		c0.171,0,0.317-0.062,0.407-0.174c0.093-0.11,0.121-0.21,0.121-0.331c0-0.082,0-0.196-0.035-0.291l-0.821-2.185h-3.486
		l-0.868,2.185c-0.017,0.112-0.039,0.209-0.039,0.307c0,0.105,0.039,0.205,0.14,0.315c0.077,0.112,0.228,0.174,0.41,0.174h0.112
		v0.143h-2.593v-0.143h0.119c0.211,0,0.426-0.062,0.622-0.203c0.211-0.122,0.372-0.323,0.506-0.593l2.913-6.922
		c0.306-0.689,0.479-1.129,0.479-1.312h0.122l3.427,8.233c0.121,0.27,0.288,0.471,0.498,0.593
		C228.046,27.451,228.268,27.513,228.473,27.513z M222.162,24.146h3.164l-1.563-4.123L222.162,24.146z"/>
	<path stroke="#000000" stroke-width="0.3915" stroke-miterlimit="10" d="M229.373,27.513c0.218,0,0.403-0.072,0.568-0.227
		c0.161-0.157,0.239-0.353,0.239-0.569v-7.122c0-0.229-0.078-0.419-0.239-0.566c-0.165-0.163-0.351-0.24-0.568-0.24h-0.171v-0.127
		h2.813v0.127h-0.178c-0.294,0-0.533,0.136-0.694,0.395c-0.067,0.122-0.113,0.271-0.113,0.412v7.652h1.842
		c0.617,0,1.106-0.141,1.453-0.418c0.32-0.295,0.609-0.699,0.814-1.26h0.137l-0.754,2.086h-5.319v-0.143H229.373z"/>
	<path stroke="#000000" stroke-width="0.3915" stroke-miterlimit="10" d="M245.639,18.788c-0.21,0-0.388,0.077-0.54,0.232
		c-0.173,0.146-0.239,0.317-0.255,0.539v6.628c0,0.504,0.033,0.978,0.082,1.418l0.035,0.234h-0.117l-7.001-7.485v6.395
		c0,0.202,0.09,0.396,0.228,0.56c0.168,0.143,0.357,0.204,0.555,0.204h0.24v0.143h-2.63v-0.143h0.239
		c0.207,0,0.391-0.062,0.557-0.204c0.162-0.163,0.228-0.359,0.228-0.56v-6.677c0-0.529-0.045-0.984-0.104-1.396l-0.013-0.204h0.128
		l7.006,7.483v-6.38c-0.01-0.223-0.089-0.409-0.248-0.555c-0.158-0.155-0.34-0.232-0.55-0.232h-0.241v-0.127h2.642v0.127H245.639z"
		/>
	<path stroke="#000000" stroke-width="0.3915" stroke-miterlimit="10" d="M247.263,27.513c0.229,0,0.411-0.072,0.578-0.227
		c0.157-0.157,0.249-0.353,0.25-0.569v-7.199c0-0.213-0.093-0.372-0.24-0.52c-0.177-0.138-0.359-0.21-0.588-0.21h-0.147
		l-0.025-0.127h3.771c0.266,0,0.564-0.035,0.856-0.07c0.328-0.058,0.539-0.107,0.672-0.17v1.629h-0.133v-0.232
		c0-0.213-0.062-0.39-0.211-0.529c-0.15-0.138-0.307-0.228-0.5-0.234h-2.63v3.973h2.185c0.168-0.007,0.305-0.067,0.428-0.189
		c0.122-0.123,0.183-0.28,0.183-0.45v-0.179h0.129v2.035h-0.129v-0.2c0-0.167-0.061-0.308-0.165-0.43
		c-0.117-0.125-0.268-0.2-0.445-0.2h-2.185v3.834h1.835c0.649,0,1.128-0.141,1.456-0.418c0.349-0.295,0.604-0.699,0.845-1.26h0.121
		l-0.738,2.086h-5.344v-0.143H247.263z"/>
	<path stroke="#000000" stroke-width="0.3915" stroke-miterlimit="10" d="M257.154,18.788c-0.311,0-0.55,0.136-0.706,0.395
		c-0.061,0.122-0.111,0.265-0.111,0.412v8.061c0,0.715-0.229,1.32-0.688,1.804c-0.446,0.512-1.003,0.767-1.653,0.767v-0.112
		c0.41-0.143,0.768-0.474,1.067-0.939c0.301-0.51,0.439-1.008,0.439-1.568v-8.011c-0.01-0.229-0.082-0.419-0.26-0.566
		c-0.149-0.163-0.347-0.24-0.568-0.24h-0.167v-0.127h2.818v0.127H257.154z"/>
	<path stroke="#000000" stroke-width="0.3915" stroke-miterlimit="10" d="M62.809,42.946h0.172v0.102h-2.816v-0.102h0.166
		c0.225,0,0.417-0.095,0.578-0.235c0.159-0.167,0.243-0.361,0.243-0.588v-7.699l-1.376,0.055c-0.859,0.061-1.29,0.395-1.29,0.96
		c0,0.239,0.071,0.432,0.223,0.576c0.15,0.174,0.387,0.277,0.706,0.281v0.078c-0.12,0.04-0.228,0.04-0.347,0.04
		c-0.39,0-0.667-0.162-0.859-0.44c-0.108-0.174-0.167-0.358-0.167-0.578c0-0.734,0.548-1.135,1.659-1.256
		c0.015,0,0.441-0.036,1.285-0.097c0.842-0.063,1.507-0.129,1.997-0.238l0.028,0.142c-0.366,0.078-0.634,0.193-0.787,0.355
		c-0.158,0.215-0.24,0.465-0.24,0.815v7.006c0.018,0.227,0.092,0.421,0.256,0.588C62.4,42.852,62.589,42.946,62.809,42.946z"/>
	<path stroke="#000000" stroke-width="0.3915" stroke-miterlimit="10" d="M66.183,36.619c-0.264-0.308-0.397-0.625-0.397-0.931
		c0-0.312,0.076-0.571,0.224-0.808c0.144-0.232,0.377-0.417,0.708-0.587c0.322-0.154,0.696-0.245,1.106-0.245h5.259
		c0.27,0,0.563-0.006,0.887-0.068c0.318-0.057,0.548-0.114,0.672-0.136v1.601l-0.125-0.007v-0.218c0-0.199-0.07-0.38-0.22-0.522
		c-0.147-0.166-0.323-0.234-0.517-0.242h-2.441v7.675c0.013,0.307,0.15,0.54,0.417,0.708c0.125,0.068,0.261,0.107,0.408,0.107h0.167
		v0.102h-2.813v-0.102h0.169c0.218,0,0.412-0.095,0.565-0.235c0.159-0.161,0.251-0.343,0.255-0.55v-7.705h-2.683
		c-0.692,0-1.181,0.205-1.496,0.661c-0.158,0.203-0.248,0.44-0.248,0.685c0,0.254,0.073,0.497,0.209,0.752L66.183,36.619z"/>
	<path stroke="#000000" stroke-width="0.3915" stroke-miterlimit="10" d="M75.809,42.946c0.231,0,0.417-0.095,0.573-0.235
		c0.157-0.167,0.247-0.361,0.248-0.588v-7.18c0-0.224-0.072-0.404-0.239-0.533c-0.159-0.128-0.35-0.221-0.581-0.221h-0.156
		l-0.013-0.103h3.769c0.268,0,0.556-0.044,0.865-0.101c0.315-0.04,0.538-0.082,0.666-0.142v1.61h-0.127v-0.234
		c0-0.199-0.079-0.38-0.214-0.52c-0.143-0.162-0.309-0.223-0.512-0.234h-2.61v3.979h2.171c0.161-0.007,0.309-0.079,0.428-0.201
		c0.123-0.12,0.184-0.282,0.184-0.457v-0.162h0.125v2.033h-0.125v-0.208c0-0.165-0.059-0.325-0.173-0.447
		c-0.12-0.122-0.27-0.185-0.431-0.185h-2.179v3.852h1.828c0.632,0,1.121-0.141,1.452-0.432c0.336-0.263,0.614-0.684,0.833-1.242
		h0.138l-0.754,2.051H75.64v-0.102H75.809z"/>
	<path stroke="#000000" stroke-width="0.3915" stroke-miterlimit="10" d="M85.573,34.467h-0.817v7.656
		c0,0.227,0.071,0.421,0.235,0.588c0.163,0.141,0.354,0.235,0.582,0.235h0.16l0.01,0.102h-2.819v-0.102h0.171
		c0.229,0,0.414-0.095,0.567-0.235c0.158-0.161,0.248-0.344,0.248-0.58v-7.109c0-0.24-0.09-0.423-0.248-0.598
		c-0.153-0.142-0.339-0.234-0.567-0.234h-0.171v-0.103h3.467c0.787,0,1.394,0.195,1.842,0.633c0.446,0.431,0.673,0.99,0.673,1.694
		c0,0.68-0.225,1.273-0.636,1.773c-0.425,0.497-0.943,0.754-1.549,0.754c0.125,0.063,0.278,0.184,0.457,0.361
		c0.176,0.176,0.329,0.36,0.461,0.536c0.734,1.059,1.224,1.717,1.441,1.955c0.225,0.237,0.389,0.399,0.479,0.499
		c0.092,0.075,0.191,0.176,0.31,0.257c0.101,0.101,0.22,0.161,0.332,0.223c0.245,0.115,0.511,0.174,0.795,0.174v0.102h-0.703
		c-0.367,0-0.72-0.05-1.031-0.19c-0.314-0.129-0.553-0.257-0.708-0.389c-0.16-0.163-0.3-0.297-0.419-0.418
		c-0.115-0.135-0.435-0.6-0.957-1.334c-0.517-0.756-0.826-1.175-0.915-1.296c-0.078-0.112-0.17-0.197-0.27-0.313
		c-0.267-0.291-0.542-0.428-0.818-0.428v-0.137c0.069,0.019,0.16,0.021,0.276,0.021c0.103,0,0.245-0.002,0.409-0.021
		c1.058-0.032,1.731-0.479,1.996-1.336c0.061-0.175,0.083-0.327,0.083-0.473c0-0.142,0-0.254,0-0.303
		c-0.022-0.563-0.174-1.037-0.453-1.375c-0.278-0.356-0.668-0.535-1.137-0.579C86.143,34.476,85.879,34.467,85.573,34.467z"/>
	<path stroke="#000000" stroke-width="0.3915" stroke-miterlimit="10" d="M99.661,42.946h0.109v0.102h-2.89v-0.102h0.115
		c0.184,0,0.313-0.059,0.402-0.174c0.092-0.122,0.14-0.234,0.14-0.344c0-0.085-0.018-0.195-0.053-0.306l-0.824-2.165h-3.466
		l-0.855,2.173c-0.038,0.108-0.059,0.219-0.059,0.298c0,0.115,0.041,0.222,0.135,0.344c0.092,0.115,0.232,0.174,0.406,0.174h0.115
		v0.102h-2.58v-0.102h0.12c0.205,0,0.418-0.081,0.62-0.218c0.206-0.138,0.381-0.323,0.503-0.605l2.912-6.902
		c0.309-0.698,0.468-1.134,0.468-1.316h0.12l3.442,8.219c0.115,0.282,0.282,0.468,0.49,0.605
		C99.233,42.865,99.442,42.946,99.661,42.946z M93.35,39.554h3.156l-1.537-4.115L93.35,39.554z"/>
	<path stroke="#000000" stroke-width="0.3915" stroke-miterlimit="10" d="M106.381,36.554c0,0.378-0.062,0.73-0.219,1.044
		c-0.29,0.608-0.785,1.037-1.491,1.281c-0.25,0.083-0.467,0.125-0.648,0.125c-0.54,0-0.996-0.085-1.376-0.297v-0.132
		c0.623,0.132,1.204,0.069,1.741-0.193c0.465-0.246,0.78-0.644,0.961-1.174c0.048-0.175,0.079-0.357,0.079-0.491
		c0-0.163,0-0.242,0-0.294c-0.02-0.606-0.179-1.09-0.479-1.427c-0.303-0.357-0.722-0.532-1.258-0.532h-1.476v7.659
		c0.002,0.227,0.092,0.421,0.248,0.588c0.155,0.141,0.344,0.235,0.564,0.235h0.172v0.102h-2.813v-0.102h0.161
		c0.231,0,0.417-0.095,0.576-0.235c0.161-0.167,0.244-0.361,0.25-0.588v-7.17c-0.03-0.233-0.12-0.414-0.265-0.543
		c-0.164-0.128-0.336-0.221-0.561-0.221h-0.15l-0.011-0.103h3.353c0.832,0,1.468,0.2,1.938,0.633
		C106.142,35.158,106.381,35.8,106.381,36.554z"/>
	<path stroke="#000000" stroke-width="0.3915" stroke-miterlimit="10" d="M107.907,42.946c0.213,0,0.411-0.095,0.562-0.235
		c0.153-0.167,0.242-0.361,0.245-0.588v-7.127c-0.003-0.215-0.092-0.414-0.245-0.572c-0.15-0.142-0.349-0.234-0.562-0.234h-0.175
		v-0.103h2.813v0.103h-0.161c-0.228,0-0.415,0.093-0.576,0.234c-0.148,0.158-0.24,0.357-0.24,0.572v7.127
		c0,0.227,0.067,0.421,0.24,0.588c0.158,0.141,0.349,0.235,0.576,0.235h0.161v0.102h-2.813v-0.102H107.907z"/>
	<path stroke="#000000" stroke-width="0.3915" stroke-miterlimit="10" d="M112.25,42.946c0.216,0,0.408-0.095,0.562-0.235
		c0.153-0.167,0.242-0.361,0.245-0.588v-7.127c-0.003-0.215-0.092-0.414-0.245-0.572c-0.153-0.142-0.346-0.234-0.562-0.234h-0.173
		v-0.103h2.813v0.103h-0.164c-0.222,0-0.414,0.093-0.575,0.234c-0.148,0.158-0.239,0.357-0.24,0.572v7.127
		c0,0.227,0.063,0.421,0.24,0.588c0.156,0.141,0.354,0.235,0.575,0.235h0.164v0.102h-2.813v-0.102H112.25z"/>
	<path stroke="#000000" stroke-width="0.3915" stroke-miterlimit="10" d="M120.381,39.659c-0.439,0.566-0.664,1.218-0.664,1.89
		c0,0.801,0.347,1.418,1.022,1.858c0.381,0.282,0.832,0.411,1.338,0.411c0.494,0,0.934-0.11,1.301-0.3
		c0.697-0.369,1.084-0.969,1.167-1.825c0.005-0.06,0.02-0.121,0.02-0.182c0-0.31-0.087-0.635-0.265-1.031
		c-0.166-0.338-0.465-0.692-0.852-0.998l-2.323-1.835c-0.503-0.377-0.744-0.878-0.744-1.52c0-0.623,0.192-1.162,0.595-1.589
		c0.407-0.436,0.938-0.635,1.631-0.635c0.343,0,0.72,0.02,1.11,0.12h0.528l0.018,1.591h-0.128c0-0.417-0.147-0.734-0.446-0.977
		c-0.283-0.235-0.65-0.356-1.062-0.356c-0.445,0-0.79,0.142-1.09,0.428c-0.302,0.286-0.451,0.663-0.451,1.106
		c0,0.436,0.201,0.84,0.572,1.115l2.387,1.877c0.935,0.745,1.407,1.649,1.407,2.703c0,0.781-0.307,1.455-0.928,2.018
		c-0.547,0.497-1.275,0.734-2.162,0.734c-0.57,0-1.042-0.082-1.482-0.297c-0.801-0.378-1.285-1.021-1.446-1.922
		c-0.026-0.129-0.026-0.313-0.026-0.533c0-0.197,0.055-0.496,0.177-0.856c0.118-0.368,0.357-0.734,0.68-1.102L120.381,39.659z"/>
	<path stroke="#000000" stroke-width="0.3915" stroke-miterlimit="10" d="M127.963,41.938c-0.848-0.854-1.287-1.978-1.287-3.374
		c0-1.402,0.439-2.54,1.287-3.396c0.849-0.856,1.983-1.264,3.377-1.264c1.156,0,2.158,0.285,3.047,0.862l0.269,1.827h-0.121
		c-0.186-0.733-0.569-1.321-1.152-1.713c-0.561-0.402-1.247-0.599-2.042-0.599c-1.116,0-2.004,0.379-2.691,1.163
		c-0.678,0.788-0.995,1.825-0.995,3.099c0,1.295,0.317,2.333,0.989,3.09c0.662,0.795,1.549,1.205,2.625,1.218
		c0.969,0,1.764-0.25,2.41-0.762c0.677-0.578,1.105-1.498,1.253-2.783h0.102l-0.15,2.022c-0.795,1.282-1.979,1.903-3.614,1.903
		C129.923,43.225,128.812,42.796,127.963,41.938z"/>
	<path stroke="#000000" stroke-width="0.3915" stroke-miterlimit="10" d="M145.042,42.946h0.162v0.102h-2.809v-0.102h0.179
		c0.198,0,0.383-0.091,0.554-0.235c0.153-0.161,0.245-0.343,0.256-0.55v-3.353h-4.971v3.363c0,1.183-0.299,2.01-0.86,2.406
		c-0.267,0.183-0.623,0.345-1.03,0.42l-0.061-0.115c0.379-0.202,0.645-0.517,0.85-0.938c0.185-0.435,0.263-1.033,0.263-1.772v-7.176
		c0-0.215-0.078-0.414-0.228-0.572c-0.182-0.142-0.362-0.234-0.589-0.234h-0.157v-0.103h2.808v0.103h-0.178
		c-0.221,0-0.41,0.093-0.562,0.234c-0.178,0.158-0.246,0.357-0.256,0.572v3.434h4.971v-3.209c0.019-1.081,0.245-1.857,0.729-2.274
		c0.296-0.256,0.68-0.439,1.175-0.555l0.074,0.115c-0.392,0.196-0.665,0.541-0.871,0.938c-0.171,0.459-0.261,1.03-0.261,1.775v6.902
		c0,0.227,0.067,0.421,0.239,0.588C144.607,42.852,144.815,42.946,145.042,42.946z"/>
	<path stroke="#000000" stroke-width="0.3915" stroke-miterlimit="10" d="M146.801,42.946c0.237,0,0.417-0.095,0.578-0.235
		c0.161-0.167,0.246-0.361,0.246-0.588v-7.18c0-0.224-0.085-0.404-0.236-0.533c-0.171-0.128-0.351-0.221-0.588-0.221h-0.151
		l-0.017-0.103h2.618c0.268,0,0.552-0.044,0.856-0.101c0.328-0.04,0.538-0.082,0.668-0.142v1.61h-0.13v-0.234
		c0-0.199-0.061-0.38-0.21-0.52c-0.148-0.162-0.323-0.223-0.506-0.234h-1.475v3.979h2.448c0.178-0.007,0.315-0.079,0.438-0.201
		c0.123-0.12,0.18-0.282,0.18-0.457v-0.162h0.122v2.033h-0.122v-0.208c0-0.165-0.057-0.325-0.18-0.447
		c-0.107-0.122-0.256-0.185-0.438-0.185h-2.448v3.852h2.748c0.617,0,1.117-0.141,1.445-0.432c0.327-0.263,0.629-0.684,0.828-1.242
		h0.142l-0.759,2.051h-6.227v-0.102H146.801z"/>
	<path stroke="#000000" stroke-width="0.3915" stroke-miterlimit="10" d="M165.227,42.946h0.206v0.102h-2.792v-0.093h0.201
		c0.144,0,0.266-0.058,0.362-0.166c0.109-0.118,0.14-0.241,0.14-0.377l-0.585-6.478l-2.691,5.998c-0.24,0.536-0.388,0.965-0.446,1.3
		h-0.122l-3.29-7.117l-0.545,6.297c-0.028,0.118,0.015,0.255,0.122,0.371c0.101,0.111,0.227,0.172,0.377,0.172h0.178v0.093h-2.478
		v-0.102h0.21c0.229,0,0.439-0.089,0.617-0.223c0.177-0.136,0.272-0.355,0.312-0.601l0.962-8.219h0.127l3.589,7.729l3.507-7.729
		h0.105l1.001,8.219c0.029,0.245,0.14,0.465,0.317,0.601C164.792,42.857,164.999,42.946,165.227,42.946z"/>
	<path stroke="#000000" stroke-width="0.3915" stroke-miterlimit="10" d="M174.818,42.946h0.113v0.102h-2.898v-0.102h0.119
		c0.17,0,0.327-0.059,0.409-0.174c0.089-0.122,0.117-0.234,0.117-0.344c0-0.085,0-0.195-0.037-0.306l-0.819-2.165h-3.481
		l-0.861,2.173c-0.028,0.108-0.05,0.219-0.05,0.298c0,0.115,0.05,0.222,0.14,0.344c0.088,0.115,0.228,0.174,0.41,0.174h0.112v0.102
		h-2.582v-0.102h0.105c0.213,0,0.426-0.081,0.636-0.218c0.199-0.138,0.372-0.323,0.494-0.605l2.924-6.902
		c0.307-0.698,0.471-1.134,0.471-1.316h0.117l3.429,8.219c0.117,0.282,0.299,0.468,0.511,0.605
		C174.389,42.865,174.604,42.946,174.818,42.946z M168.507,39.554h3.156l-1.554-4.115L168.507,39.554z"/>
	<path stroke="#000000" stroke-width="0.3915" stroke-miterlimit="10" d="M181.431,35.221c0-0.199-0.067-0.38-0.201-0.522
		c-0.161-0.166-0.331-0.234-0.528-0.242h-2.433v7.675c0,0.236,0.092,0.419,0.245,0.58c0.164,0.141,0.342,0.235,0.582,0.235h0.155
		v0.102h-2.818v-0.102h0.184c0.211,0,0.406-0.095,0.557-0.235c0.164-0.161,0.243-0.343,0.271-0.55v-7.705h-2.451
		c-0.21,0.008-0.389,0.076-0.529,0.242c-0.128,0.143-0.21,0.323-0.21,0.522v0.218l-0.117,0.007v-1.601
		c0.117,0.021,0.351,0.079,0.673,0.136c0.305,0.063,0.591,0.068,0.861,0.068h4.342c0.42,0,0.765-0.02,1.047-0.085
		c0.278-0.06,0.455-0.109,0.518-0.119v1.601l-0.146-0.007V35.221z"/>
	<path stroke="#000000" stroke-width="0.3915" stroke-miterlimit="10" d="M191.263,34.189h-0.21c-0.185,0-0.342,0.071-0.46,0.174
		c-0.151,0.115-0.21,0.275-0.231,0.457v5.08c0,0.997-0.307,1.793-0.956,2.405c-0.617,0.641-1.472,0.927-2.513,0.927
		c-1.063,0-1.921-0.286-2.567-0.927c-0.647-0.574-0.976-1.408-0.976-2.405v-5.06c0-0.259-0.117-0.438-0.346-0.559
		c-0.1-0.061-0.223-0.093-0.333-0.093h-0.208v-0.103h2.6v0.103h-0.213c-0.178,0-0.344,0.071-0.465,0.174
		c-0.123,0.115-0.208,0.275-0.208,0.457v4.903c0,0.932,0.244,1.673,0.74,2.271c0.506,0.555,1.181,0.856,2.013,0.856
		c0.852,0,1.529-0.261,2.052-0.82c0.513-0.536,0.784-1.254,0.784-2.131v-5.08c0-0.182-0.083-0.342-0.211-0.457
		c-0.118-0.103-0.295-0.174-0.479-0.174h-0.197v-0.103h2.385V34.189z"/>
</g>
<g>
	<g>
		<path d="M25.066,7.724c0,0-1.134-5.666-22.365-6.724c0.533,5.352,5.393,16.275,9.795,16.762c3.77-2.43,12.535-7.637,12.535-7.637
			L25.066,7.724z"/>
		<path d="M25.103,27.142c0,0,2.356,6.243-22.43,7.367c0.277-2.33,2.248-13.071,9.823-16.767c4.582-2.996,12.57-7.955,12.535-7.78
			C25.001,10.136,25.103,27.142,25.103,27.142z"/>
		<path d="M28.425,27.776c0,0,1.134,5.687,22.365,6.732c-0.533-5.347-5.393-16.265-9.792-16.767
			c-3.771,2.434-12.537,7.645-12.537,7.645L28.425,27.776z"/>
		<path d="M28.382,8.366c0,0-2.35-6.239,22.437-7.366c-0.277,2.321-2.246,13.067-9.82,16.762
			c-4.583,3.002-12.574,7.958-12.537,7.778C28.49,25.361,28.382,8.366,28.382,8.366z"/>
	</g>
	<g>
		<path stroke="#000000" stroke-width="0.25" stroke-miterlimit="10" d="M9.85,43.179l0.176,0.178
			c-0.322,0.441-0.659,0.758-1.009,0.961c-0.342,0.209-0.724,0.313-1.143,0.313c-0.584,0-1.067-0.235-1.447-0.719
			c-0.382-0.456-0.578-1.055-0.578-1.771c0-0.745,0.227-1.385,0.68-1.913c0.46-0.516,1.003-0.778,1.617-0.778
			c0.533,0,0.966,0.173,1.317,0.495c0.356,0.32,0.534,0.706,0.534,1.158c0,0.115-0.033,0.189-0.08,0.234
			c-0.051,0.044-0.163,0.059-0.345,0.059H9.128H6.752c0,0-0.004,0.029-0.004,0.038c-0.007,0.165-0.018,0.298-0.018,0.385
			c0,0.604,0.151,1.126,0.449,1.509c0.308,0.396,0.688,0.584,1.154,0.584c0.236,0,0.485-0.052,0.741-0.175
			C9.329,43.618,9.591,43.436,9.85,43.179z M6.795,41.029h1.832c0.184,0,0.292-0.015,0.339-0.052
			c0.045-0.037,0.069-0.121,0.069-0.227c0-0.297-0.093-0.526-0.268-0.703c-0.183-0.183-0.41-0.277-0.694-0.277
			c-0.316,0-0.586,0.127-0.816,0.353C7.021,40.341,6.873,40.65,6.795,41.029z"/>
		<path stroke="#000000" stroke-width="0.25" stroke-miterlimit="10" d="M23.32,46.376c0.049,0,0.094,0,0.137,0v0.126
			c-0.221,0.015-0.453,0.044-0.725,0.044c-0.266,0-0.599-0.074-0.988-0.178c-0.395-0.119-0.754-0.324-1.068-0.658
			c-0.652-0.642-1.045-1.491-1.191-2.531l-0.702-5.195l-2.429,5.476c-0.219,0.482-0.352,0.88-0.395,1.2h-0.118l-3.014-6.557
			l-0.513,5.79c-0.021,0.138,0.022,0.237,0.118,0.354c0.101,0.092,0.205,0.145,0.326,0.145h0.187v0.101h-2.266v-0.127h0.192
			c0.208,0,0.39-0.058,0.549-0.19c0.157-0.129,0.26-0.282,0.294-0.496l0.739-6.353c-0.681-1.345-1.506-2.019-2.458-2.019
			c-0.088,0-0.176,0-0.27,0.002V35.19c0.212-0.047,0.382-0.087,0.517-0.087c0.126,0,0.271,0.024,0.427,0.026
			c0.159,0.015,0.339,0.045,0.549,0.104c0.204,0.073,0.404,0.146,0.597,0.278c0.186,0.122,0.347,0.246,0.485,0.379
			c0.144,0.118,0.278,0.271,0.395,0.425c0.209,0.272,0.382,0.542,0.498,0.805l2.81,6.073l3.139-7.023h0.108l1.08,6.905
			c0.163,1.083,0.517,1.905,1.056,2.474C21.924,46.104,22.564,46.376,23.32,46.376z"/>
		<path stroke="#000000" stroke-width="0.25" stroke-miterlimit="10" d="M23.069,37.342c0.829-0.776,1.909-1.171,3.232-1.171
			c1.325,0,2.393,0.395,3.234,1.171c0.82,0.774,1.245,1.8,1.245,3.067c0,1.277-0.424,2.289-1.245,3.076
			c-0.842,0.777-1.909,1.174-3.234,1.174c-1.323,0-2.403-0.396-3.232-1.174c-0.842-0.787-1.25-1.799-1.25-3.076
			C21.819,39.142,22.228,38.116,23.069,37.342z M23.698,43.23c0.659,0.718,1.517,1.077,2.591,1.077c1.076,0,1.944-0.359,2.596-1.077
			c0.659-0.712,0.988-1.661,0.988-2.821c0-1.165-0.329-2.09-0.988-2.806c-0.651-0.715-1.52-1.081-2.596-1.081
			c-1.074,0-1.932,0.366-2.591,1.081c-0.651,0.716-0.981,1.641-0.981,2.806C22.717,41.569,23.047,42.519,23.698,43.23z"/>
		<path stroke="#000000" stroke-width="0.25" stroke-miterlimit="10" d="M33.205,43.485c-0.771-0.787-1.151-1.799-1.151-3.085
			c0-1.259,0.38-2.284,1.151-3.059c0.78-0.776,1.797-1.171,3.071-1.171c1.039,0,1.96,0.265,2.763,0.807l0.23,1.625h-0.098
			c-0.176-0.666-0.527-1.174-1.046-1.541c-0.519-0.352-1.142-0.539-1.85-0.539c-1.013,0-1.83,0.362-2.44,1.055
			c-0.612,0.716-0.919,1.654-0.919,2.815s0.307,2.104,0.909,2.802c0.598,0.717,1.395,1.098,2.383,1.113
			c0.863,0,1.595-0.235,2.179-0.718c0.631-0.502,1.011-1.347,1.144-2.487h0.094l-0.139,1.813c-0.709,1.159-1.808,1.743-3.277,1.743
			C34.981,44.659,33.985,44.263,33.205,43.485z"/>
		<path stroke="#000000" stroke-width="0.25" stroke-miterlimit="10" d="M42.055,44.585c0,0.761-0.131,1.289-0.38,1.609
			c-0.247,0.322-0.704,0.585-1.376,0.806l-0.094-0.282c0.365-0.127,0.62-0.305,0.755-0.539c0.144-0.217,0.213-0.657,0.213-1.287
			v-3.862c0-0.322-0.047-0.54-0.135-0.646c-0.088-0.114-0.264-0.212-0.515-0.291v-0.138c0.23-0.082,0.457-0.147,0.661-0.243
			c0.216-0.09,0.415-0.174,0.604-0.293h0.266V44.585z M41.045,37.21c0-0.148,0.047-0.277,0.153-0.395
			c0.109-0.103,0.242-0.145,0.388-0.145c0.153,0,0.284,0.042,0.38,0.145c0.11,0.117,0.161,0.246,0.161,0.395
			c0,0.145-0.051,0.277-0.161,0.396c-0.096,0.103-0.227,0.145-0.38,0.145c-0.146,0-0.279-0.042-0.388-0.145
			C41.093,37.487,41.045,37.354,41.045,37.21z"/>
		<path stroke="#000000" stroke-width="0.25" stroke-miterlimit="10" d="M46.21,43.803c-0.341,0.27-0.659,0.465-0.943,0.596
			c-0.292,0.134-0.558,0.208-0.805,0.208c-0.322,0-0.588-0.109-0.796-0.299c-0.215-0.193-0.309-0.455-0.309-0.763
			c0-0.351,0.164-0.644,0.511-0.892c0.34-0.232,1.112-0.539,2.321-0.922V40.97c0-0.336-0.088-0.57-0.251-0.74
			c-0.174-0.151-0.431-0.233-0.79-0.233c-0.249,0-0.445,0.054-0.576,0.187c-0.137,0.129-0.225,0.336-0.257,0.613
			c-0.022,0.129-0.08,0.233-0.176,0.307c-0.092,0.061-0.225,0.103-0.395,0.103c-0.073,0-0.137-0.016-0.166-0.042
			c-0.037-0.043-0.048-0.09-0.048-0.148c0-0.182,0.053-0.352,0.155-0.513c0.102-0.14,0.279-0.288,0.541-0.454
			c0.314-0.188,0.593-0.336,0.841-0.452c0.249-0.095,0.462-0.146,0.629-0.146c0.482,0,0.827,0.104,1.046,0.315
			c0.214,0.195,0.324,0.539,0.324,1.002v2.546c0,0.271,0.035,0.44,0.101,0.511c0.059,0.081,0.18,0.118,0.345,0.118
			c0.071,0,0.135,0,0.196-0.03c0.053-0.019,0.096-0.059,0.141-0.104l0.139,0.148c-0.188,0.203-0.38,0.352-0.571,0.479
			c-0.197,0.105-0.372,0.172-0.519,0.172c-0.202,0-0.368-0.08-0.492-0.223C46.283,44.247,46.225,44.046,46.21,43.803z M46.18,43.398
			V42.01c-0.817,0.263-1.346,0.466-1.595,0.644c-0.247,0.177-0.372,0.381-0.372,0.615c0,0.217,0.082,0.395,0.243,0.539
			c0.164,0.148,0.356,0.238,0.584,0.238c0.188,0,0.388-0.061,0.592-0.178C45.834,43.766,46.014,43.597,46.18,43.398z"/>
	</g>
</g>
</svg>
