<?xml version="1.0" encoding="utf-8"?>
<!-- Generator: Adobe Illustrator 16.0.0, SVG Export Plug-In . SVG Version: 6.00 Build 0)  -->
<!DOCTYPE svg PUBLIC "-//W3C//DTD SVG 1.1//EN" "http://www.w3.org/Graphics/SVG/1.1/DTD/svg11.dtd">
<svg version="1.1" id="Layer_1" xmlns="http://www.w3.org/2000/svg" xmlns:xlink="http://www.w3.org/1999/xlink" x="0px" y="0px"
	 width="49px" height="35px" viewBox="0 0 49 35" enable-background="new 0 0 49 35" xml:space="preserve">
<g>
	<path d="M22.821,7.469c0,0-1.134-5.666-22.365-6.724c0.533,5.352,5.393,16.275,9.795,16.762c3.77-2.43,12.535-7.637,12.535-7.637
		L22.821,7.469z"/>
	<path d="M22.857,26.887c0,0,2.356,6.244-22.43,7.367c0.277-2.33,2.248-13.07,9.823-16.766c4.582-2.996,12.57-7.955,12.535-7.78
		C22.755,9.882,22.857,26.887,22.857,26.887z"/>
	<path d="M26.18,27.521c0,0,1.133,5.688,22.365,6.732c-0.533-5.346-5.393-16.264-9.793-16.766
		c-3.771,2.434-12.535,7.645-12.535,7.645L26.18,27.521z"/>
	<path d="M26.137,8.111c0,0-2.35-6.239,22.436-7.366c-0.277,2.321-2.246,13.067-9.82,16.762c-4.582,3.002-12.572,7.958-12.535,7.778
		C26.244,25.107,26.137,8.111,26.137,8.111z"/>
</g>
</svg>
