<?xml version="1.0" encoding="utf-8"?>
<!-- Generator: Adobe Illustrator 16.0.0, SVG Export Plug-In . SVG Version: 6.00 Build 0)  -->
<!DOCTYPE svg PUBLIC "-//W3C//DTD SVG 1.1//EN" "http://www.w3.org/Graphics/SVG/1.1/DTD/svg11.dtd">
<svg version="1.1" id="Layer_1" xmlns="http://www.w3.org/2000/svg" xmlns:xlink="http://www.w3.org/1999/xlink" x="0px" y="0px"
	 width="260px" height="48px" viewBox="0 0 260 48" enable-background="new 0 0 260 48" xml:space="preserve">
<g>
	<g>
		<path d="M38.06,5.502c0.912,6.336,6.139,17.104,10.371,17.908c1.083-0.707,11.311-7.292,13.876-8.63l0.032-2.142
			C62.155,12.138,59.647,6.688,38.06,5.502z"/>
		<path d="M38.041,42.5c17.816-0.881,22.645-4.119,23.937-5.987c0.649-0.938,0.444-1.594,0.436-1.622l-0.033-0.186
			c-0.071-11.823-0.087-16.518-0.086-18.398c-2.506,1.493-9.9,5.919-13.408,8.179l-0.17,0.114l-0.052-0.009
			C40.74,28.653,38.496,39.639,38.041,42.5z"/>
		<path d="M48.887,24.485c3.508-2.26,10.902-6.686,13.408-8.179c0-0.086,0-0.171,0-0.244c-2.284,1.334-9.065,5.563-13.405,8.402
			c-0.078,0.038-0.148,0.086-0.225,0.126l0.052,0.009L48.887,24.485z"/>
		<path d="M91.589,42.498c-0.913-6.326-6.136-17.092-10.368-17.911c-1.088,0.709-11.311,7.292-13.878,8.628l-0.034,2.137
			C67.494,35.854,70,41.323,91.589,42.498z"/>
		<path d="M91.608,5.5c-17.969,0.892-22.745,4.167-23.989,6.054c-0.595,0.903-0.398,1.534-0.396,1.54l0.037,0.197
			c0.075,11.854,0.093,16.534,0.094,18.405c2.507-1.494,9.9-5.924,13.412-8.189l0.17-0.11l0.053,0.005
			C88.902,19.344,91.151,8.361,91.608,5.5z"/>
		<path d="M80.766,23.507c-3.512,2.266-10.905,6.695-13.412,8.189c0,0.082,0,0.169,0,0.24c2.285-1.334,9.077-5.565,13.409-8.404
			c0.079-0.039,0.148-0.087,0.226-0.131l-0.053-0.005L80.766,23.507z"/>
	</g>
	<g>
		<path stroke="#000000" stroke-width="0.7188" stroke-miterlimit="10" d="M112.309,30.115l0.505,0.51
			c-0.927,1.267-1.895,2.181-2.903,2.765c-0.982,0.599-2.081,0.899-3.286,0.899c-1.681,0-3.068-0.679-4.16-2.071
			c-1.099-1.309-1.663-3.027-1.663-5.086c0-2.145,0.651-3.984,1.954-5.503c1.322-1.482,2.885-2.238,4.649-2.238
			c1.533,0,2.778,0.498,3.788,1.427c1.023,0.919,1.534,2.029,1.534,3.327c0,0.332-0.095,0.546-0.231,0.676
			c-0.145,0.125-0.468,0.167-0.992,0.167h-1.269h-6.832c0,0-0.013,0.086-0.013,0.109c-0.021,0.478-0.053,0.857-0.053,1.107
			c0,1.737,0.436,3.238,1.293,4.338c0.886,1.142,1.977,1.676,3.316,1.676c0.679,0,1.397-0.147,2.131-0.497
			C110.81,31.378,111.565,30.855,112.309,30.115z M103.527,23.935h5.265c0.528,0,0.841-0.042,0.975-0.148
			c0.129-0.107,0.198-0.349,0.198-0.651c0-0.855-0.268-1.514-0.77-2.021c-0.527-0.523-1.178-0.798-1.994-0.798
			c-0.909,0-1.686,0.366-2.348,1.015C104.178,21.954,103.75,22.847,103.527,23.935z"/>
		<path stroke="#000000" stroke-width="0.7188" stroke-miterlimit="10" d="M151.036,39.31c0.142,0,0.271,0,0.394,0v0.361
			c-0.632,0.042-1.302,0.124-2.084,0.124c-0.765,0-1.721-0.214-2.84-0.511c-1.136-0.341-2.167-0.933-3.071-1.891
			c-1.874-1.844-3.004-4.288-3.425-7.278l-2.02-14.936l-6.983,15.744c-0.63,1.386-1.01,2.529-1.135,3.448h-0.338l-8.663-18.85
			l-1.475,16.646c-0.061,0.396,0.065,0.682,0.339,1.019c0.291,0.266,0.587,0.417,0.937,0.417h0.536v0.289h-6.514v-0.365h0.551
			c0.597,0,1.121-0.166,1.58-0.551c0.45-0.37,0.746-0.809,0.844-1.425l2.124-18.264c-1.957-3.866-4.331-5.803-7.065-5.803
			c-0.253,0-0.505,0-0.775,0.005V7.147c0.61-0.133,1.099-0.25,1.485-0.25c0.361,0,0.779,0.07,1.227,0.078
			c0.457,0.042,0.975,0.129,1.578,0.299c0.587,0.211,1.162,0.422,1.715,0.802c0.535,0.35,0.999,0.707,1.397,1.088
			c0.41,0.34,0.799,0.78,1.133,1.22c0.604,0.785,1.098,1.56,1.433,2.313l8.078,17.459l9.023-20.191h0.311l3.104,19.854
			c0.47,3.112,1.486,5.479,3.036,7.111C147.022,38.526,148.863,39.31,151.036,39.31z"/>
		<path stroke="#000000" stroke-width="0.7188" stroke-miterlimit="10" d="M150.314,13.334c2.385-2.232,5.489-3.368,9.292-3.368
			c3.813,0,6.882,1.135,9.302,3.368c2.358,2.226,3.579,5.175,3.579,8.819c0,3.675-1.221,6.58-3.579,8.845
			c-2.42,2.236-5.488,3.373-9.302,3.373c-3.803,0-6.907-1.137-9.292-3.373c-2.42-2.265-3.593-5.17-3.593-8.845
			C146.722,18.509,147.895,15.56,150.314,13.334z M152.122,30.263c1.898,2.063,4.362,3.099,7.449,3.099
			c3.093,0,5.591-1.036,7.465-3.099c1.893-2.044,2.841-4.775,2.841-8.109c0-3.352-0.948-6.01-2.841-8.067
			c-1.874-2.056-4.372-3.108-7.465-3.108c-3.087,0-5.551,1.052-7.449,3.108c-1.873,2.058-2.819,4.716-2.819,8.067
			C149.303,25.487,150.249,28.219,152.122,30.263z"/>
		<path stroke="#000000" stroke-width="0.7188" stroke-miterlimit="10" d="M179.458,30.998c-2.222-2.265-3.313-5.17-3.313-8.871
			c0-3.618,1.091-6.567,3.313-8.793c2.242-2.232,5.166-3.368,8.828-3.368c2.989,0,5.637,0.761,7.944,2.32l0.662,4.671h-0.277
			c-0.506-1.915-1.518-3.375-3.01-4.43c-1.491-1.012-3.284-1.551-5.319-1.551c-2.909,0-5.259,1.042-7.016,3.032
			c-1.762,2.059-2.642,4.756-2.642,8.097c0,3.337,0.88,6.049,2.613,8.051c1.72,2.061,4.009,3.159,6.852,3.204
			c2.48,0,4.587-0.679,6.264-2.064c1.813-1.442,2.909-3.871,3.289-7.152h0.271l-0.398,5.214c-2.043,3.337-5.199,5.013-9.426,5.013
			C184.563,34.371,181.7,33.234,179.458,30.998z"/>
		<path stroke="#000000" stroke-width="0.7188" stroke-miterlimit="10" d="M204.902,34.157c0,2.189-0.375,3.709-1.092,4.628
			c-0.711,0.928-2.024,1.683-3.958,2.315l-0.268-0.81c1.049-0.364,1.781-0.875,2.17-1.551c0.411-0.621,0.612-1.889,0.612-3.699
			V23.935c0-0.924-0.136-1.552-0.389-1.854c-0.252-0.328-0.758-0.609-1.479-0.836v-0.396c0.662-0.237,1.312-0.425,1.902-0.701
			c0.621-0.258,1.193-0.497,1.736-0.841h0.765V34.157z M202.002,12.955c0-0.427,0.133-0.796,0.439-1.135
			c0.314-0.294,0.694-0.415,1.116-0.415c0.44,0,0.815,0.121,1.093,0.415c0.317,0.338,0.463,0.708,0.463,1.135
			c0,0.416-0.146,0.798-0.463,1.14c-0.277,0.293-0.652,0.416-1.093,0.416c-0.422,0-0.802-0.123-1.116-0.416
			C202.135,13.753,202.002,13.371,202.002,12.955z"/>
		<path stroke="#000000" stroke-width="0.7188" stroke-miterlimit="10" d="M216.85,31.91c-0.982,0.772-1.896,1.336-2.712,1.711
			c-0.843,0.386-1.605,0.599-2.317,0.599c-0.924,0-1.688-0.315-2.286-0.858c-0.618-0.556-0.887-1.308-0.887-2.195
			c0-1.009,0.47-1.85,1.468-2.563c0.978-0.666,3.2-1.547,6.675-2.649v-2.192c0-0.963-0.253-1.637-0.722-2.125
			c-0.501-0.434-1.237-0.672-2.272-0.672c-0.717,0-1.278,0.152-1.657,0.537c-0.395,0.37-0.646,0.967-0.736,1.765
			c-0.065,0.368-0.232,0.668-0.506,0.878c-0.263,0.177-0.646,0.296-1.137,0.296c-0.207,0-0.39-0.044-0.475-0.119
			c-0.106-0.126-0.14-0.258-0.14-0.429c0-0.521,0.155-1.011,0.449-1.474c0.291-0.401,0.802-0.828,1.555-1.306
			c0.904-0.539,1.705-0.967,2.418-1.3c0.718-0.271,1.329-0.423,1.808-0.423c1.386,0,2.379,0.304,3.007,0.91
			c0.615,0.559,0.934,1.546,0.934,2.879v7.32c0,0.776,0.101,1.267,0.288,1.47c0.171,0.231,0.516,0.339,0.989,0.339
			c0.206,0,0.389,0,0.566-0.091c0.151-0.05,0.272-0.164,0.403-0.296l0.398,0.428c-0.539,0.583-1.091,1.012-1.642,1.376
			c-0.565,0.306-1.07,0.494-1.493,0.494c-0.58,0-1.057-0.231-1.414-0.641C217.058,33.187,216.892,32.606,216.85,31.91z
			 M216.761,30.748v-3.994c-2.35,0.755-3.868,1.338-4.585,1.85c-0.708,0.507-1.067,1.098-1.067,1.768
			c0,0.627,0.233,1.137,0.696,1.551c0.47,0.428,1.022,0.685,1.678,0.685c0.54,0,1.115-0.174,1.705-0.51
			C215.769,31.803,216.284,31.319,216.761,30.748z"/>
	</g>
</g>
</svg>
