<?xml version="1.0" encoding="utf-8"?>
<!-- Generator: Adobe Illustrator 16.0.0, SVG Export Plug-In . SVG Version: 6.00 Build 0)  -->
<!DOCTYPE svg PUBLIC "-//W3C//DTD SVG 1.1//EN" "http://www.w3.org/Graphics/SVG/1.1/DTD/svg11.dtd">
<svg version="1.1" id="Layer_1" xmlns="http://www.w3.org/2000/svg" xmlns:xlink="http://www.w3.org/1999/xlink" x="0px" y="0px"
	 width="65px" height="48px" viewBox="0 0 65 48" enable-background="new 0 0 65 48" xml:space="preserve">
<g>
	<g>
		<path d="M5.735,5.502c0.912,6.336,6.139,17.104,10.371,17.908c1.083-0.707,11.311-7.292,13.876-8.63l0.032-2.142
			C29.831,12.138,27.323,6.688,5.735,5.502z"/>
		<path d="M5.716,42.5c17.816-0.881,22.645-4.119,23.937-5.987c0.649-0.938,0.444-1.594,0.436-1.622l-0.033-0.186
			c-0.071-11.823-0.087-16.518-0.086-18.398c-2.506,1.493-9.9,5.919-13.408,8.179l-0.17,0.114l-0.052-0.009
			C8.416,28.653,6.171,39.639,5.716,42.5z"/>
		<path d="M16.563,24.485c3.508-2.26,10.902-6.686,13.408-8.179c0-0.086,0-0.171,0-0.244c-2.284,1.334-9.065,5.563-13.405,8.402
			c-0.078,0.038-0.148,0.086-0.225,0.126l0.052,0.009L16.563,24.485z"/>
		<path d="M59.265,42.498c-0.913-6.326-6.136-17.092-10.368-17.911c-1.088,0.709-11.311,7.292-13.877,8.628l-0.034,2.137
			C35.17,35.854,37.676,41.323,59.265,42.498z"/>
		<path d="M59.283,5.5c-17.969,0.892-22.744,4.167-23.988,6.054c-0.595,0.903-0.398,1.534-0.396,1.54l0.037,0.197
			c0.074,11.854,0.093,16.534,0.094,18.405c2.508-1.494,9.9-5.924,13.412-8.189l0.17-0.11l0.053,0.005
			C56.578,19.344,58.827,8.361,59.283,5.5z"/>
		<path d="M48.441,23.507c-3.512,2.266-10.904,6.695-13.412,8.189c0,0.082,0,0.169,0,0.24c2.285-1.334,9.076-5.565,13.409-8.404
			c0.079-0.039,0.148-0.087,0.226-0.131l-0.053-0.005L48.441,23.507z"/>
	</g>
</g>
</svg>
