<?xml version="1.0" encoding="utf-8"?>
<!-- Generator: Adobe Illustrator 16.0.0, SVG Export Plug-In . SVG Version: 6.00 Build 0)  -->
<!DOCTYPE svg PUBLIC "-//W3C//DTD SVG 1.1//EN" "http://www.w3.org/Graphics/SVG/1.1/DTD/svg11.dtd">
<svg version="1.1" id="Layer_1" xmlns="http://www.w3.org/2000/svg" xmlns:xlink="http://www.w3.org/1999/xlink" x="0px" y="0px"
	 width="49px" height="47px" viewBox="0 0 49 47" enable-background="new 0 0 49 47" xml:space="preserve">
<g>
	<g>
		<path d="M22.821,7.145c0,0-1.134-5.666-22.365-6.724c0.533,5.352,5.393,16.275,9.795,16.762c3.77-2.43,12.535-7.637,12.535-7.637
			L22.821,7.145z"/>
		<path d="M22.857,26.563c0,0,2.356,6.244-22.43,7.367c0.277-2.33,2.248-13.071,9.823-16.766c4.582-2.996,12.57-7.955,12.535-7.78
			C22.755,9.558,22.857,26.563,22.857,26.563z"/>
		<path d="M26.18,27.197c0,0,1.133,5.688,22.365,6.732c-0.533-5.346-5.393-16.264-9.793-16.766
			c-3.771,2.434-12.535,7.645-12.535,7.645L26.18,27.197z"/>
		<path d="M26.137,7.787c0,0-2.35-6.239,22.436-7.366c-0.277,2.321-2.246,13.067-9.82,16.762
			c-4.582,3.002-12.572,7.958-12.535,7.778C26.244,24.783,26.137,7.787,26.137,7.787z"/>
	</g>
	<g>
		<path stroke="#000000" stroke-width="0.25" stroke-miterlimit="10" d="M7.604,42.6l0.176,0.178
			c-0.322,0.441-0.659,0.758-1.009,0.961c-0.342,0.209-0.724,0.313-1.143,0.313c-0.584,0-1.067-0.234-1.447-0.719
			c-0.382-0.455-0.578-1.055-0.578-1.77c0-0.746,0.227-1.385,0.68-1.914c0.46-0.516,1.003-0.777,1.617-0.777
			c0.533,0,0.966,0.172,1.317,0.494c0.356,0.32,0.534,0.707,0.534,1.158c0,0.115-0.033,0.189-0.08,0.234
			c-0.051,0.045-0.163,0.059-0.345,0.059H6.883H4.506c0,0-0.004,0.029-0.004,0.039c-0.007,0.164-0.018,0.297-0.018,0.385
			c0,0.604,0.151,1.125,0.449,1.508c0.308,0.396,0.688,0.584,1.154,0.584c0.236,0,0.485-0.051,0.741-0.174
			C7.083,43.039,7.345,42.857,7.604,42.6z M4.549,40.451h1.832c0.184,0,0.292-0.016,0.339-0.053
			c0.045-0.037,0.069-0.121,0.069-0.227c0-0.297-0.093-0.525-0.268-0.703c-0.183-0.182-0.41-0.277-0.694-0.277
			c-0.316,0-0.586,0.127-0.816,0.354C4.776,39.762,4.627,40.072,4.549,40.451z"/>
		<path stroke="#000000" stroke-width="0.25" stroke-miterlimit="10" d="M21.075,45.797c0.049,0,0.094,0,0.137,0v0.127
			c-0.221,0.014-0.453,0.043-0.725,0.043c-0.266,0-0.599-0.074-0.988-0.178c-0.395-0.119-0.754-0.324-1.068-0.658
			c-0.652-0.641-1.045-1.49-1.191-2.531l-0.702-5.195l-2.429,5.477c-0.219,0.482-0.352,0.879-0.395,1.199h-0.118l-3.014-6.557
			l-0.513,5.791c-0.021,0.137,0.022,0.236,0.118,0.354c0.101,0.092,0.205,0.145,0.326,0.145h0.187v0.102H8.433v-0.127h0.192
			c0.208,0,0.39-0.059,0.549-0.191c0.157-0.129,0.26-0.281,0.294-0.496l0.739-6.352c-0.681-1.346-1.506-2.02-2.458-2.02
			c-0.088,0-0.176,0-0.27,0.002v-0.119c0.212-0.047,0.382-0.086,0.517-0.086c0.126,0,0.271,0.023,0.427,0.025
			c0.159,0.016,0.339,0.045,0.549,0.105c0.204,0.072,0.404,0.146,0.597,0.277c0.186,0.123,0.347,0.246,0.485,0.379
			c0.144,0.119,0.278,0.271,0.395,0.426c0.209,0.271,0.382,0.541,0.498,0.805l2.81,6.072l3.139-7.023h0.108l1.08,6.906
			c0.163,1.082,0.517,1.904,1.056,2.473C19.678,45.525,20.319,45.797,21.075,45.797z"/>
		<path stroke="#000000" stroke-width="0.25" stroke-miterlimit="10" d="M20.824,36.764c0.829-0.777,1.909-1.172,3.232-1.172
			c1.325,0,2.393,0.395,3.235,1.172c0.82,0.773,1.244,1.799,1.244,3.066c0,1.277-0.424,2.289-1.244,3.076
			c-0.842,0.777-1.91,1.174-3.235,1.174c-1.323,0-2.403-0.396-3.232-1.174c-0.842-0.787-1.25-1.799-1.25-3.076
			C19.573,38.563,19.982,37.537,20.824,36.764z M21.453,42.652c0.659,0.717,1.517,1.076,2.591,1.076
			c1.076,0,1.945-0.359,2.595-1.076c0.66-0.713,0.988-1.662,0.988-2.822c0-1.164-0.328-2.09-0.988-2.805
			c-0.65-0.715-1.519-1.082-2.595-1.082c-1.074,0-1.932,0.367-2.591,1.082c-0.651,0.715-0.981,1.641-0.981,2.805
			C20.472,40.99,20.801,41.939,21.453,42.652z"/>
		<path stroke="#000000" stroke-width="0.25" stroke-miterlimit="10" d="M30.959,42.906c-0.771-0.787-1.15-1.799-1.15-3.084
			c0-1.26,0.379-2.285,1.15-3.059c0.781-0.777,1.797-1.172,3.072-1.172c1.039,0,1.959,0.266,2.762,0.807l0.23,1.625h-0.098
			c-0.176-0.666-0.527-1.174-1.045-1.541c-0.52-0.352-1.143-0.539-1.85-0.539c-1.014,0-1.83,0.363-2.441,1.055
			c-0.611,0.717-0.918,1.654-0.918,2.816c0,1.16,0.307,2.104,0.908,2.801c0.598,0.717,1.395,1.098,2.383,1.113
			c0.863,0,1.596-0.234,2.18-0.717c0.631-0.502,1.01-1.348,1.143-2.488h0.094l-0.139,1.814c-0.709,1.158-1.807,1.742-3.277,1.742
			C32.734,44.08,31.74,43.684,30.959,42.906z"/>
		<path stroke="#000000" stroke-width="0.25" stroke-miterlimit="10" d="M39.809,44.006c0,0.762-0.131,1.289-0.379,1.609
			c-0.248,0.322-0.705,0.586-1.377,0.807l-0.094-0.283c0.365-0.127,0.621-0.305,0.756-0.539c0.143-0.217,0.213-0.656,0.213-1.287
			v-3.861c0-0.322-0.047-0.541-0.135-0.646c-0.088-0.113-0.264-0.211-0.516-0.291v-0.137c0.23-0.082,0.457-0.148,0.662-0.244
			c0.215-0.09,0.414-0.174,0.604-0.293h0.266V44.006z M38.799,36.631c0-0.148,0.049-0.277,0.154-0.395
			c0.109-0.102,0.242-0.145,0.389-0.145c0.152,0,0.283,0.043,0.379,0.145c0.111,0.117,0.162,0.246,0.162,0.395
			c0,0.145-0.051,0.277-0.162,0.396c-0.096,0.104-0.227,0.145-0.379,0.145c-0.146,0-0.279-0.041-0.389-0.145
			C38.848,36.908,38.799,36.775,38.799,36.631z"/>
		<path stroke="#000000" stroke-width="0.25" stroke-miterlimit="10" d="M43.965,43.225c-0.342,0.27-0.66,0.465-0.943,0.596
			c-0.293,0.133-0.559,0.207-0.805,0.207c-0.322,0-0.59-0.109-0.797-0.299c-0.215-0.193-0.309-0.455-0.309-0.762
			c0-0.352,0.164-0.645,0.512-0.893c0.34-0.232,1.111-0.539,2.32-0.922v-0.762c0-0.336-0.088-0.57-0.25-0.74
			c-0.174-0.15-0.432-0.232-0.791-0.232c-0.248,0-0.445,0.053-0.576,0.186c-0.137,0.129-0.225,0.336-0.256,0.613
			c-0.023,0.129-0.08,0.234-0.176,0.307c-0.092,0.061-0.225,0.104-0.395,0.104c-0.074,0-0.137-0.016-0.166-0.043
			c-0.037-0.043-0.049-0.09-0.049-0.148c0-0.182,0.053-0.352,0.156-0.512c0.102-0.141,0.279-0.289,0.541-0.455
			c0.314-0.188,0.592-0.336,0.84-0.451c0.25-0.096,0.463-0.146,0.629-0.146c0.482,0,0.828,0.104,1.047,0.314
			c0.213,0.195,0.324,0.539,0.324,1.002v2.547c0,0.27,0.035,0.439,0.1,0.51c0.059,0.082,0.18,0.119,0.346,0.119
			c0.07,0,0.135,0,0.195-0.031c0.053-0.018,0.096-0.059,0.141-0.104l0.139,0.148c-0.188,0.203-0.379,0.352-0.57,0.479
			c-0.197,0.105-0.373,0.172-0.52,0.172c-0.201,0-0.367-0.08-0.492-0.223C44.037,43.668,43.979,43.467,43.965,43.225z M43.934,42.82
			v-1.389c-0.816,0.262-1.346,0.465-1.594,0.643s-0.373,0.381-0.373,0.615c0,0.217,0.082,0.395,0.242,0.539
			c0.164,0.148,0.357,0.238,0.584,0.238c0.189,0,0.389-0.061,0.594-0.178C43.588,43.188,43.768,43.018,43.934,42.82z"/>
	</g>
</g>
</svg>
